G75*
%MOIN*%
%OFA0B0*%
%FSLAX25Y25*%
%IPPOS*%
%LPD*%
%AMOC8*
5,1,8,0,0,1.08239X$1,22.5*
%
%ADD10C,0.01000*%
%ADD11C,0.06000*%
%ADD12R,0.08400X0.08400*%
%ADD13C,0.08400*%
%ADD14C,0.05950*%
%ADD15C,0.08200*%
%ADD16OC8,0.06000*%
%ADD17C,0.17398*%
%ADD18C,0.17000*%
%ADD19C,0.06800*%
%ADD20C,0.23800*%
%ADD21C,0.04800*%
D10*
X0483333Y0001500D02*
X0877034Y0001500D01*
X0877034Y0316461D01*
X0483333Y0316461D01*
X0483333Y0001500D01*
D11*
X0618733Y0109000D02*
X0623933Y0109000D01*
X0623933Y0119000D02*
X0618733Y0119000D01*
X0618733Y0129000D02*
X0623933Y0129000D01*
X0623933Y0139000D02*
X0618733Y0139000D01*
X0618733Y0149000D02*
X0623933Y0149000D01*
X0648733Y0149000D02*
X0653933Y0149000D01*
X0653933Y0139000D02*
X0648733Y0139000D01*
X0648733Y0129000D02*
X0653933Y0129000D01*
X0653933Y0119000D02*
X0648733Y0119000D01*
X0648733Y0109000D02*
X0653933Y0109000D01*
X0675733Y0108500D02*
X0680933Y0108500D01*
X0680933Y0118500D02*
X0675733Y0118500D01*
X0675733Y0128500D02*
X0680933Y0128500D01*
X0680933Y0138500D02*
X0675733Y0138500D01*
X0675733Y0148500D02*
X0680933Y0148500D01*
X0680933Y0158500D02*
X0675733Y0158500D01*
X0675733Y0168500D02*
X0680933Y0168500D01*
X0705733Y0168500D02*
X0710933Y0168500D01*
X0732733Y0168500D02*
X0737933Y0168500D01*
X0762733Y0168500D02*
X0767933Y0168500D01*
X0767933Y0158500D02*
X0762733Y0158500D01*
X0737933Y0158500D02*
X0732733Y0158500D01*
X0710933Y0158500D02*
X0705733Y0158500D01*
X0705733Y0148500D02*
X0710933Y0148500D01*
X0732733Y0148500D02*
X0737933Y0148500D01*
X0762733Y0148500D02*
X0767933Y0148500D01*
X0767933Y0138500D02*
X0762733Y0138500D01*
X0737933Y0138500D02*
X0732733Y0138500D01*
X0710933Y0138500D02*
X0705733Y0138500D01*
X0705733Y0128500D02*
X0710933Y0128500D01*
X0732733Y0128500D02*
X0737933Y0128500D01*
X0762733Y0128500D02*
X0767933Y0128500D01*
X0767933Y0118500D02*
X0762733Y0118500D01*
X0737933Y0118500D02*
X0732733Y0118500D01*
X0710933Y0118500D02*
X0705733Y0118500D01*
X0705733Y0108500D02*
X0710933Y0108500D01*
X0732733Y0108500D02*
X0737933Y0108500D01*
X0762733Y0108500D02*
X0767933Y0108500D01*
X0653933Y0159000D02*
X0648733Y0159000D01*
X0648733Y0169000D02*
X0653933Y0169000D01*
X0653933Y0179000D02*
X0648733Y0179000D01*
X0623933Y0179000D02*
X0618733Y0179000D01*
X0618733Y0169000D02*
X0623933Y0169000D01*
X0623933Y0159000D02*
X0618733Y0159000D01*
X0675733Y0178500D02*
X0680933Y0178500D01*
X0705733Y0178500D02*
X0710933Y0178500D01*
X0732733Y0178500D02*
X0737933Y0178500D01*
X0762733Y0178500D02*
X0767933Y0178500D01*
X0772333Y0203900D02*
X0772333Y0209100D01*
X0762333Y0209100D02*
X0762333Y0203900D01*
X0752333Y0203900D02*
X0752333Y0209100D01*
X0742333Y0209100D02*
X0742333Y0203900D01*
X0732333Y0203900D02*
X0732333Y0209100D01*
X0722333Y0209100D02*
X0722333Y0203900D01*
X0712333Y0203900D02*
X0712333Y0209100D01*
X0702333Y0209100D02*
X0702333Y0203900D01*
X0683333Y0203900D02*
X0683333Y0209100D01*
X0673333Y0209100D02*
X0673333Y0203900D01*
X0663333Y0203900D02*
X0663333Y0209100D01*
X0653333Y0209100D02*
X0653333Y0203900D01*
X0643333Y0203900D02*
X0643333Y0209100D01*
X0633333Y0209100D02*
X0633333Y0203900D01*
X0623333Y0203900D02*
X0623333Y0209100D01*
X0613333Y0209100D02*
X0613333Y0203900D01*
X0613333Y0233900D02*
X0613333Y0239100D01*
X0623333Y0239100D02*
X0623333Y0233900D01*
X0633333Y0233900D02*
X0633333Y0239100D01*
X0643333Y0239100D02*
X0643333Y0233900D01*
X0653333Y0233900D02*
X0653333Y0239100D01*
X0663333Y0239100D02*
X0663333Y0233900D01*
X0673333Y0233900D02*
X0673333Y0239100D01*
X0683333Y0239100D02*
X0683333Y0233900D01*
X0702333Y0233900D02*
X0702333Y0239100D01*
X0712333Y0239100D02*
X0712333Y0233900D01*
X0722333Y0233900D02*
X0722333Y0239100D01*
X0732333Y0239100D02*
X0732333Y0233900D01*
X0742333Y0233900D02*
X0742333Y0239100D01*
X0752333Y0239100D02*
X0752333Y0233900D01*
X0762333Y0233900D02*
X0762333Y0239100D01*
X0772333Y0239100D02*
X0772333Y0233900D01*
D12*
X0818333Y0231500D03*
D13*
X0828333Y0231500D03*
X0828333Y0221500D03*
X0818333Y0221500D03*
X0818333Y0211500D03*
X0828333Y0211500D03*
X0828333Y0201500D03*
X0818333Y0201500D03*
X0818333Y0191500D03*
X0828333Y0191500D03*
X0828333Y0181500D03*
X0818333Y0181500D03*
X0793333Y0181500D03*
X0793333Y0191500D03*
X0793333Y0201500D03*
X0793333Y0211500D03*
X0793333Y0221500D03*
X0793333Y0231500D03*
X0853333Y0231500D03*
X0853333Y0221500D03*
X0853333Y0211500D03*
X0853333Y0201500D03*
X0853333Y0191500D03*
X0853333Y0181500D03*
X0853333Y0171500D03*
X0853333Y0161500D03*
X0853333Y0151500D03*
X0853333Y0141500D03*
X0853333Y0131500D03*
X0853333Y0121500D03*
X0853333Y0111500D03*
X0828333Y0111500D03*
X0818333Y0111500D03*
X0818333Y0121500D03*
X0828333Y0121500D03*
X0828333Y0131500D03*
X0818333Y0131500D03*
X0818333Y0141500D03*
X0828333Y0141500D03*
X0828333Y0151500D03*
X0818333Y0151500D03*
X0818333Y0161500D03*
X0828333Y0161500D03*
X0828333Y0171500D03*
X0818333Y0171500D03*
X0793333Y0171500D03*
X0793333Y0161500D03*
X0793333Y0151500D03*
X0793333Y0141500D03*
X0793333Y0131500D03*
X0793333Y0121500D03*
X0793333Y0111500D03*
D14*
X0855572Y0039482D02*
X0860721Y0039482D01*
X0860721Y0031608D02*
X0855572Y0031608D01*
X0855572Y0023734D02*
X0860721Y0023734D01*
X0825066Y0024262D02*
X0825066Y0019112D01*
X0817192Y0019112D02*
X0817192Y0024262D01*
X0809318Y0024262D02*
X0809318Y0019112D01*
X0801444Y0019112D02*
X0801444Y0024262D01*
X0780066Y0024262D02*
X0780066Y0019112D01*
X0772192Y0019112D02*
X0772192Y0024262D01*
X0764318Y0024262D02*
X0764318Y0019112D01*
X0756444Y0019112D02*
X0756444Y0024262D01*
X0735066Y0024262D02*
X0735066Y0019112D01*
X0727192Y0019112D02*
X0727192Y0024262D01*
X0719318Y0024262D02*
X0719318Y0019112D01*
X0711444Y0019112D02*
X0711444Y0024262D01*
X0690066Y0024262D02*
X0690066Y0019112D01*
X0682192Y0019112D02*
X0682192Y0024262D01*
X0674318Y0024262D02*
X0674318Y0019112D01*
X0666444Y0019112D02*
X0666444Y0024262D01*
X0577566Y0024262D02*
X0577566Y0019112D01*
X0569692Y0019112D02*
X0569692Y0024262D01*
X0549081Y0024262D02*
X0549081Y0019112D01*
X0541207Y0019112D02*
X0541207Y0024262D01*
X0533333Y0024262D02*
X0533333Y0019112D01*
X0525459Y0019112D02*
X0525459Y0024262D01*
X0517585Y0024262D02*
X0517585Y0019112D01*
X0509411Y0019112D02*
X0509411Y0024262D01*
X0510721Y0047858D02*
X0505572Y0047858D01*
X0505572Y0055732D02*
X0510721Y0055732D01*
X0510721Y0075752D02*
X0505572Y0075752D01*
X0505572Y0083626D02*
X0510721Y0083626D01*
X0510721Y0091500D02*
X0505572Y0091500D01*
X0505572Y0099374D02*
X0510721Y0099374D01*
X0510721Y0107248D02*
X0505572Y0107248D01*
X0541444Y0084262D02*
X0541444Y0079112D01*
X0549318Y0079112D02*
X0549318Y0084262D01*
X0557192Y0084262D02*
X0557192Y0079112D01*
X0565066Y0079112D02*
X0565066Y0084262D01*
X0510721Y0130752D02*
X0505572Y0130752D01*
X0505572Y0138626D02*
X0510721Y0138626D01*
X0510721Y0146500D02*
X0505572Y0146500D01*
X0505572Y0154374D02*
X0510721Y0154374D01*
X0510721Y0162248D02*
X0505572Y0162248D01*
X0505572Y0187858D02*
X0510721Y0187858D01*
X0510721Y0195732D02*
X0505572Y0195732D01*
X0505572Y0216110D02*
X0510721Y0216110D01*
X0510721Y0223984D02*
X0505572Y0223984D01*
X0505572Y0231858D02*
X0510721Y0231858D01*
X0510721Y0239732D02*
X0505572Y0239732D01*
X0539692Y0259112D02*
X0539692Y0264262D01*
X0547566Y0264262D02*
X0547566Y0259112D01*
X0584692Y0259112D02*
X0584692Y0264262D01*
X0592566Y0264262D02*
X0592566Y0259112D01*
X0644692Y0259112D02*
X0644692Y0264262D01*
X0652566Y0264262D02*
X0652566Y0259112D01*
X0709692Y0259112D02*
X0709692Y0264262D01*
X0717566Y0264262D02*
X0717566Y0259112D01*
X0769692Y0259112D02*
X0769692Y0264262D01*
X0777566Y0264262D02*
X0777566Y0259112D01*
X0814692Y0273112D02*
X0814692Y0278262D01*
X0822566Y0278262D02*
X0822566Y0273112D01*
X0821444Y0298112D02*
X0821444Y0303262D01*
X0829318Y0303262D02*
X0829318Y0298112D01*
X0837192Y0298112D02*
X0837192Y0303262D01*
X0845066Y0303262D02*
X0845066Y0298112D01*
X0789081Y0298112D02*
X0789081Y0303262D01*
X0781207Y0303262D02*
X0781207Y0298112D01*
X0773333Y0298112D02*
X0773333Y0303262D01*
X0765459Y0303262D02*
X0765459Y0298112D01*
X0757585Y0298112D02*
X0757585Y0303262D01*
X0729081Y0303262D02*
X0729081Y0298112D01*
X0721207Y0298112D02*
X0721207Y0303262D01*
X0713333Y0303262D02*
X0713333Y0298112D01*
X0705459Y0298112D02*
X0705459Y0303262D01*
X0697585Y0303262D02*
X0697585Y0298112D01*
X0664081Y0298112D02*
X0664081Y0303262D01*
X0656207Y0303262D02*
X0656207Y0298112D01*
X0648333Y0298112D02*
X0648333Y0303262D01*
X0640459Y0303262D02*
X0640459Y0298112D01*
X0632585Y0298112D02*
X0632585Y0303262D01*
X0602081Y0303262D02*
X0602081Y0298112D01*
X0594207Y0298112D02*
X0594207Y0303262D01*
X0586333Y0303262D02*
X0586333Y0298112D01*
X0578459Y0298112D02*
X0578459Y0303262D01*
X0570585Y0303262D02*
X0570585Y0298112D01*
X0542081Y0298112D02*
X0542081Y0303262D01*
X0534207Y0303262D02*
X0534207Y0298112D01*
X0526333Y0298112D02*
X0526333Y0303262D01*
X0518459Y0303262D02*
X0518459Y0298112D01*
X0510585Y0298112D02*
X0510585Y0303262D01*
D15*
X0538833Y0239500D03*
X0538833Y0229500D03*
X0538833Y0219500D03*
X0538833Y0209500D03*
X0538833Y0199500D03*
X0538833Y0189500D03*
X0588833Y0189500D03*
X0588833Y0199500D03*
X0588833Y0209500D03*
X0588833Y0219500D03*
X0588833Y0229500D03*
X0588833Y0239500D03*
X0653333Y0054000D03*
X0648333Y0046500D03*
X0658333Y0046500D03*
X0673333Y0046500D03*
X0683333Y0046500D03*
X0678333Y0054000D03*
X0698333Y0046500D03*
X0708333Y0046500D03*
X0703333Y0054000D03*
X0723333Y0046500D03*
X0733333Y0046500D03*
X0728333Y0054000D03*
X0748333Y0046500D03*
X0758333Y0046500D03*
X0753333Y0054000D03*
X0773333Y0046500D03*
X0783333Y0046500D03*
X0798333Y0046500D03*
X0803333Y0054000D03*
X0808333Y0046500D03*
X0778333Y0054000D03*
D16*
X0778333Y0066500D03*
X0800833Y0066500D03*
X0753333Y0066500D03*
X0728333Y0066500D03*
X0703333Y0066500D03*
X0678333Y0066500D03*
X0653333Y0066500D03*
X0653333Y0086500D03*
X0678333Y0086500D03*
X0703333Y0086500D03*
X0728333Y0086500D03*
X0753333Y0086500D03*
X0778333Y0086500D03*
X0800833Y0086500D03*
X0855333Y0080500D03*
X0855333Y0060500D03*
X0839833Y0043500D03*
X0819833Y0043500D03*
D17*
X0613333Y0061137D03*
D18*
X0628143Y0048626D03*
X0613433Y0032315D03*
D19*
X0578333Y0048500D02*
X0578333Y0054500D01*
X0568333Y0054500D02*
X0568333Y0048500D01*
X0558333Y0048500D02*
X0558333Y0054500D01*
D20*
X0558333Y0116500D03*
X0827333Y0068000D03*
X0513333Y0266500D03*
X0852333Y0272500D03*
D21*
X0804583Y0271500D03*
X0765833Y0287750D03*
X0760833Y0287750D03*
X0755833Y0287750D03*
X0729583Y0272750D03*
X0688333Y0272750D03*
X0659583Y0267750D03*
X0635833Y0272750D03*
X0628333Y0272750D03*
X0598333Y0272750D03*
X0589583Y0281500D03*
X0598333Y0292750D03*
X0628333Y0284000D03*
X0643333Y0289000D03*
X0659583Y0287750D03*
X0692083Y0295250D03*
X0639583Y0256500D03*
X0632083Y0256500D03*
X0639583Y0244000D03*
X0662083Y0227750D03*
X0662083Y0220250D03*
X0642083Y0220250D03*
X0687083Y0229000D03*
X0708333Y0221500D03*
X0712083Y0217750D03*
X0750833Y0221500D03*
X0779583Y0239000D03*
X0787083Y0242750D03*
X0808333Y0235250D03*
X0840833Y0235250D03*
X0787083Y0195250D03*
X0783333Y0185250D03*
X0763333Y0185250D03*
X0755833Y0182750D03*
X0755833Y0192750D03*
X0738333Y0196500D03*
X0719583Y0189000D03*
X0699583Y0182750D03*
X0689583Y0192750D03*
X0670833Y0195250D03*
X0663333Y0191500D03*
X0658333Y0190250D03*
X0667083Y0182750D03*
X0663333Y0175250D03*
X0689583Y0169000D03*
X0670833Y0165250D03*
X0640833Y0160250D03*
X0633333Y0157750D03*
X0640833Y0154000D03*
X0657083Y0144000D03*
X0663333Y0130250D03*
X0640833Y0117750D03*
X0633333Y0125250D03*
X0612083Y0129000D03*
X0599583Y0135250D03*
X0592083Y0129000D03*
X0579583Y0135250D03*
X0568958Y0136500D03*
X0558333Y0141500D03*
X0579583Y0151500D03*
X0592083Y0149000D03*
X0602083Y0147750D03*
X0589583Y0160250D03*
X0570833Y0165250D03*
X0570833Y0170250D03*
X0605833Y0186500D03*
X0602083Y0190250D03*
X0599583Y0195250D03*
X0595833Y0209000D03*
X0567083Y0196500D03*
X0629583Y0170250D03*
X0714583Y0164000D03*
X0729583Y0164000D03*
X0748333Y0167750D03*
X0727083Y0176500D03*
X0779583Y0160250D03*
X0744583Y0149000D03*
X0722083Y0126500D03*
X0699583Y0124000D03*
X0689583Y0117750D03*
X0684583Y0104000D03*
X0672083Y0101500D03*
X0660833Y0100250D03*
X0662083Y0094000D03*
X0665833Y0086500D03*
X0682083Y0094000D03*
X0708333Y0097750D03*
X0739583Y0081500D03*
X0747083Y0086500D03*
X0779583Y0077750D03*
X0812083Y0077750D03*
X0814583Y0094000D03*
X0782083Y0110250D03*
X0760833Y0100250D03*
X0745833Y0114000D03*
X0667083Y0077750D03*
X0652083Y0077750D03*
X0640833Y0074000D03*
X0634583Y0067750D03*
X0640833Y0066500D03*
X0658333Y0059000D03*
X0665833Y0059000D03*
X0688333Y0061500D03*
X0693333Y0067750D03*
X0722083Y0070250D03*
X0695833Y0054000D03*
X0689583Y0040250D03*
X0695833Y0030250D03*
X0724583Y0032750D03*
X0728333Y0036500D03*
X0745833Y0034000D03*
X0769583Y0037750D03*
X0783333Y0029000D03*
X0818333Y0034000D03*
X0835833Y0024000D03*
X0695833Y0019000D03*
X0660833Y0030250D03*
X0639583Y0030250D03*
X0644583Y0040250D03*
X0595833Y0053750D03*
X0537083Y0030250D03*
X0500833Y0017750D03*
X0585833Y0026500D03*
X0592083Y0017750D03*
X0575833Y0085250D03*
X0572083Y0089000D03*
X0547083Y0099000D03*
X0523333Y0087750D03*
X0529583Y0084000D03*
X0599583Y0104000D03*
X0610833Y0104000D03*
X0579583Y0114000D03*
X0539583Y0116500D03*
X0533333Y0117750D03*
X0525833Y0150250D03*
X0644583Y0096500D03*
X0577083Y0235250D03*
X0597083Y0255250D03*
X0567083Y0262750D03*
X0553333Y0271500D03*
X0529583Y0275250D03*
X0529583Y0285250D03*
X0544583Y0291500D03*
X0725833Y0252750D03*
M02*
