%
M48
M72
T01C0.02400
T02C0.03150
T03C0.03200
T04C0.03937
T05C0.04000
T06C0.11800
T07C0.12598
%
T01
X500833Y17750
X537083Y30250
X585833Y26500
X592083Y17750
X639583Y30250
X660833Y30250
X644583Y40250
X689583Y40250
X695833Y30250
X724583Y32750
X728333Y36500
X745833Y34000
X769583Y37750
X783333Y29000
X818333Y34000
X835833Y24000
X722083Y70250
X739583Y81500
X747083Y86500
X779583Y77750
X812083Y77750
X814583Y94000
X782083Y110250
X760833Y100250
X745833Y114000
X722083Y126500
X699583Y124000
X689583Y117750
X663333Y130250
X640833Y117750
X633333Y125250
X612083Y129000
X599583Y135250
X592083Y129000
X579583Y135250
X568958Y136500
X558333Y141500
X579583Y151500
X592083Y149000
X602083Y147750
X589583Y160250
X570833Y165250
X570833Y170250
X605833Y186500
X602083Y190250
X599583Y195250
X595833Y209000
X567083Y196500
X629583Y170250
X640833Y160250
X633333Y157750
X640833Y154000
X657083Y144000
X670833Y165250
X689583Y169000
X714583Y164000
X729583Y164000
X748333Y167750
X727083Y176500
X699583Y182750
X689583Y192750
X670833Y195250
X663333Y191500
X658333Y190250
X667083Y182750
X663333Y175250
X719583Y189000
X738333Y196500
X755833Y192750
X763333Y185250
X755833Y182750
X783333Y185250
X787083Y195250
X750833Y221500
X712083Y217750
X708333Y221500
X687083Y229000
X662083Y227750
X662083Y220250
X642083Y220250
X639583Y244000
X639583Y256500
X632083Y256500
X659583Y267750
X635833Y272750
X628333Y272750
X598333Y272750
X589583Y281500
X598333Y292750
X628333Y284000
X643333Y289000
X659583Y287750
X692083Y295250
X688333Y272750
X729583Y272750
X755833Y287750
X760833Y287750
X765833Y287750
X804583Y271500
X787083Y242750
X779583Y239000
X808333Y235250
X840833Y235250
X725833Y252750
X597083Y255250
X567083Y262750
X553333Y271500
X529583Y275250
X529583Y285250
X544583Y291500
X577083Y235250
X779583Y160250
X744583Y149000
X684583Y104000
X672083Y101500
X660833Y100250
X662083Y94000
X665833Y86500
X682083Y94000
X708333Y97750
X667083Y77750
X652083Y77750
X640833Y74000
X634583Y67750
X640833Y66500
X658333Y59000
X665833Y59000
X688333Y61500
X693333Y67750
X695833Y54000
X695833Y19000
X595833Y53750
X575833Y85250
X572083Y89000
X547083Y99000
X523333Y87750
X529583Y84000
X599583Y104000
X610833Y104000
X579583Y114000
X539583Y116500
X533333Y117750
X525833Y150250
X644583Y96500
T02
X565066Y81687
X557192Y81687
X549318Y81687
X541444Y81687
X508146Y83626
X508146Y91500
X508146Y99374
X508146Y107248
X508146Y130752
X508146Y138626
X508146Y146500
X508146Y154374
X508146Y162248
X508146Y187858
X508146Y195732
X508146Y216110
X508146Y223984
X508146Y231858
X508146Y239732
X539692Y261687
X547566Y261687
X584692Y261687
X592566Y261687
X644692Y261687
X652566Y261687
X709692Y261687
X717566Y261687
X769692Y261687
X777566Y261687
X814692Y275687
X822566Y275687
X821444Y300687
X829318Y300687
X837192Y300687
X845066Y300687
X789081Y300687
X781207Y300687
X773333Y300687
X765459Y300687
X757585Y300687
X729081Y300687
X721207Y300687
X713333Y300687
X705459Y300687
X697585Y300687
X664081Y300687
X656207Y300687
X648333Y300687
X640459Y300687
X632585Y300687
X602081Y300687
X594207Y300687
X586333Y300687
X578459Y300687
X570585Y300687
X542081Y300687
X534207Y300687
X526333Y300687
X518459Y300687
X510585Y300687
X508146Y75752
X508146Y55732
X508146Y47858
X509411Y21687
X517585Y21687
X525459Y21687
X533333Y21687
X541207Y21687
X549081Y21687
X569692Y21687
X577566Y21687
X666444Y21687
X674318Y21687
X682192Y21687
X690066Y21687
X711444Y21687
X719318Y21687
X727192Y21687
X735066Y21687
X756444Y21687
X764318Y21687
X772192Y21687
X780066Y21687
X801444Y21687
X809318Y21687
X817192Y21687
X825066Y21687
X858146Y23734
X858146Y31608
X858146Y39482
T03
X839833Y43500
X819833Y43500
X808333Y46500
X803333Y54000
X798333Y46500
X783333Y46500
X773333Y46500
X778333Y54000
X758333Y46500
X748333Y46500
X753333Y54000
X733333Y46500
X723333Y46500
X728333Y54000
X708333Y46500
X698333Y46500
X703333Y54000
X683333Y46500
X673333Y46500
X658333Y46500
X648333Y46500
X653333Y54000
X678333Y54000
X678333Y66500
X653333Y66500
X703333Y66500
X728333Y66500
X753333Y66500
X778333Y66500
X800833Y66500
X855333Y60500
X855333Y80500
X800833Y86500
X778333Y86500
X753333Y86500
X728333Y86500
X703333Y86500
X678333Y86500
X653333Y86500
X651333Y109000
X651333Y119000
X651333Y129000
X651333Y139000
X651333Y149000
X678333Y148500
X678333Y138500
X678333Y128500
X678333Y118500
X678333Y108500
X708333Y108500
X708333Y118500
X708333Y128500
X708333Y138500
X708333Y148500
X708333Y158500
X708333Y168500
X735333Y168500
X735333Y158500
X735333Y148500
X735333Y138500
X735333Y128500
X735333Y118500
X735333Y108500
X765333Y108500
X765333Y118500
X765333Y128500
X765333Y138500
X765333Y148500
X765333Y158500
X765333Y168500
X765333Y178500
X735333Y178500
X708333Y178500
X678333Y178500
X651333Y179000
X651333Y169000
X651333Y159000
X678333Y158500
X678333Y168500
X621333Y169000
X621333Y159000
X621333Y149000
X621333Y139000
X621333Y129000
X621333Y119000
X621333Y109000
X621333Y179000
X623333Y206500
X613333Y206500
X633333Y206500
X643333Y206500
X653333Y206500
X663333Y206500
X673333Y206500
X683333Y206500
X702333Y206500
X712333Y206500
X722333Y206500
X732333Y206500
X742333Y206500
X752333Y206500
X762333Y206500
X772333Y206500
X772333Y236500
X762333Y236500
X752333Y236500
X742333Y236500
X732333Y236500
X722333Y236500
X712333Y236500
X702333Y236500
X683333Y236500
X673333Y236500
X663333Y236500
X653333Y236500
X643333Y236500
X633333Y236500
X623333Y236500
X613333Y236500
T04
X793333Y231500
X793333Y221500
X793333Y211500
X793333Y201500
X793333Y191500
X793333Y181500
X818333Y181500
X828333Y181500
X828333Y191500
X818333Y191500
X818333Y201500
X828333Y201500
X828333Y211500
X818333Y211500
X818333Y221500
X828333Y221500
X828333Y231500
X818333Y231500
X853333Y231500
X853333Y221500
X853333Y211500
X853333Y201500
X853333Y191500
X853333Y181500
X853333Y171500
X853333Y161500
X853333Y151500
X853333Y141500
X853333Y131500
X853333Y121500
X853333Y111500
X828333Y111500
X818333Y111500
X818333Y121500
X828333Y121500
X828333Y131500
X818333Y131500
X818333Y141500
X828333Y141500
X828333Y151500
X818333Y151500
X818333Y161500
X828333Y161500
X828333Y171500
X818333Y171500
X793333Y171500
X793333Y161500
X793333Y151500
X793333Y141500
X793333Y131500
X793333Y121500
X793333Y111500
T05
X588833Y189500
X588833Y199500
X588833Y209500
X588833Y219500
X588833Y229500
X588833Y239500
X538833Y239500
X538833Y229500
X538833Y219500
X538833Y209500
X538833Y199500
X538833Y189500
X558333Y51500
X568333Y51500
X578333Y51500
T06
X628143Y48626
X613433Y32315
T07
X613333Y61137
X558333Y116500
X827333Y68000
X513333Y266500
X852333Y272500
M30
